<?xml version="1.0" encoding="UTF-8"?> <svg xmlns="http://www.w3.org/2000/svg" width="32" height="25.97" viewBox="0 0 32 25.97"><metadata><?xpacket begin="﻿" id="W5M0MpCehiHzreSzNTczkc9d"?><?xpacket end="w"?></metadata><defs><style> .cls-1 { fill-rule: evenodd; } </style></defs><path id="twitter" class="cls-1" d="M71.766,1397a6.758,6.758,0,0,1,5.189,2.06,10.7,10.7,0,0,0,3.363-1.13l0.817-.45a6.541,6.541,0,0,1-2.13,3.08,3.2,3.2,0,0,1-.721.51v0.02A12.429,12.429,0,0,0,82,1400.08v0.02a10.47,10.47,0,0,1-2.226,2.55c-0.342.28-.683,0.55-1.025,0.82a18.7,18.7,0,0,1-.3,4.21c-1.64,7.37-5.984,12.38-12.861,14.52a19.689,19.689,0,0,1-9.289.38,24.137,24.137,0,0,1-3.86-1.26,15.076,15.076,0,0,1-1.858-.96c-0.192-.11-0.384-0.23-0.576-0.35a10.313,10.313,0,0,0,2.1.08c0.645-.1,1.278-0.08,1.874-0.21a13.127,13.127,0,0,0,3.94-1.42,7.388,7.388,0,0,0,1.778-1.16,5.727,5.727,0,0,1-1.954-.35,6.6,6.6,0,0,1-4.164-4.2c0.644,0.07,2.5.23,2.931-.13a4.962,4.962,0,0,1-2.146-.86,6.327,6.327,0,0,1-3.091-5.62c0.224,0.1.448,0.21,0.673,0.31a6.873,6.873,0,0,0,1.377.39,2.067,2.067,0,0,0,.9.08H54.18c-0.331-.39-0.869-0.64-1.2-1.06a6.7,6.7,0,0,1-1.473-5.95,7.582,7.582,0,0,1,.7-1.71,0.057,0.057,0,0,1,.032.02,4.111,4.111,0,0,0,.593.68,11.766,11.766,0,0,0,1.954,1.87,19.232,19.232,0,0,0,8.024,3.88,12.29,12.29,0,0,0,2.947.38,6.091,6.091,0,0,1,.032-3.08,6.487,6.487,0,0,1,3.716-4.41,7.923,7.923,0,0,1,1.457-.44C71.232,1397.07,71.5,1397.03,71.766,1397Z" transform="translate(-50 -1397)"></path></svg> 