<?xml version="1.0" encoding="UTF-8"?> <svg xmlns="http://www.w3.org/2000/svg" width="32" height="22" viewBox="0 0 32 22"><metadata><?xpacket begin="﻿" id="W5M0MpCehiHzreSzNTczkc9d"?><?xpacket end="w"?></metadata><defs><style> .cls-1 { fill-rule: evenodd; } </style></defs><path id="MAIL" class="cls-1" d="M519.811,680.871l9.742-9.438A1.492,1.492,0,0,1,530,672.5v19a1.491,1.491,0,0,1-.4,1.019ZM498.5,671.39a1.489,1.489,0,0,1,1-.39h29a1.489,1.489,0,0,1,1,.39L514,683.5Zm-0.094,21.129a1.492,1.492,0,0,1-.4-1.019v-19a1.492,1.492,0,0,1,.447-1.067l9.742,9.438ZM514,686.5l4.068-3.94,11.46,10.027A1.486,1.486,0,0,1,528.5,693h-29a1.486,1.486,0,0,1-1.028-.413l11.46-10.027Z" transform="translate(-498 -671)"></path></svg> 