<?xml version="1.0" encoding="UTF-8" standalone="no"?> <!--Generator: Xara Designer (www.xara.com), SVG filter version: 6.1.0.18--> <svg xmlns:xlink="http://www.w3.org/1999/xlink" xmlns="http://www.w3.org/2000/svg" stroke-width="0.501" stroke-linejoin="bevel" fill-rule="evenodd" version="1.1" overflow="visible" width="46.08pt" height="46.08pt" viewBox="0 0 46.08 46.08"><defs> </defs><g id="Document" fill="none" stroke="black" font-family="Times New Roman" font-size="16" transform="scale(1 -1)"><g id="Spread" transform="translate(0 -46.08)"><g id="Layer 1"><g id="Group" fill-rule="evenodd" stroke-linejoin="miter" stroke="none" stroke-width="0.976" fill="#ffffff" stroke-miterlimit="79.8403193612775"><path d="M 43.873,4.292 L 2.207,4.292 C 1.057,4.292 0.124,3.36 0.124,2.208 C 0.124,1.058 1.057,0.125 2.207,0.125 L 43.872,0.125 C 45.023,0.125 45.955,1.058 45.955,2.208 C 45.955,3.36 45.022,4.292 43.873,4.292 Z" marker-start="none" marker-end="none"></path><path d="M 4.811,9.71 C 3.661,9.71 2.728,8.777 2.728,7.626 C 2.728,6.475 3.661,5.541 4.811,5.541 L 41.268,5.541 C 42.42,5.541 43.352,6.475 43.352,7.626 C 43.352,8.777 42.42,9.71 41.268,9.71 L 40.748,9.71 L 40.748,28.46 L 41.268,28.46 C 41.845,28.46 42.309,28.926 42.309,29.501 C 42.309,30.075 41.843,30.542 41.268,30.542 L 4.811,30.542 C 4.236,30.542 3.771,30.075 3.771,29.501 C 3.771,28.926 4.237,28.46 4.811,28.46 L 5.332,28.46 L 5.332,9.711 L 4.811,9.711 Z M 36.581,28.46 L 36.581,9.711 L 30.331,9.711 L 30.331,28.46 L 36.581,28.46 Z M 26.163,28.46 L 26.163,9.711 L 19.914,9.711 L 19.914,28.46 L 26.163,28.46 Z M 9.499,28.46 L 15.747,28.46 L 15.747,9.711 L 9.499,9.711 L 9.499,28.46 Z" marker-start="none" marker-end="none"></path><path d="M 2.197,32.415 L 43.862,32.415 C 43.869,32.415 43.876,32.415 43.883,32.415 C 45.035,32.415 45.966,33.348 45.966,34.499 C 45.966,35.414 45.377,36.189 44.558,36.47 L 23.886,45.772 C 23.343,46.016 22.722,46.016 22.177,45.772 L 1.343,36.398 C 0.447,35.994 -0.046,35.02 0.161,34.061 C 0.366,33.101 1.215,32.415 2.197,32.415 Z" marker-start="none" marker-end="none"></path></g></g></g></g></svg> 