<?xml version="1.0" encoding="UTF-8"?> <svg xmlns="http://www.w3.org/2000/svg" viewBox="0 0 1928.04 1500"><defs><style>.cls-1{fill:#fff;}.cls-2{fill:#f0672f;}.cls-3{fill:#e32a2e;}.cls-4{fill:#f7a031;}</style></defs><title>Mastercard-logo-white</title><g id="Layer_2" data-name="Layer 2"><g id="Layer_1-2" data-name="Layer 1"><g id="mastercard"><path id="mastercard-txt" class="cls-1" d="M350,1491.89v-99.21c0-37.44-23.71-62.4-62.39-63-20-.62-41.19,6.24-55.54,28.08-10.6-17.47-28.07-28.08-52.41-28.08-16.85,0-33.69,5-46.17,23.71v-20H99.21v158.49h34.94v-88c0-27.46,15-41.81,38.69-41.81,23.09,0,34.32,15,34.32,41.81v88H242.1v-88c0-27.46,15.6-41.81,38.68-41.81,23.71,0,35,15,35,41.81v88ZM864.81,1333.4H808.65v-48H773.71v48H741.89v31.2h31.82V1437c0,36.81,14.35,58.65,54.91,58.65,15,0,32.45-4.37,43-12.48l-10-29.32a58.74,58.74,0,0,1-30.57,8.73c-17.47,0-23.09-10.61-23.09-26.2V1364.6h56.16v-31.2Zm293.26-3.74c-20,0-33.07,9.36-41.81,23.09V1333.4H1082v158.49h34.31v-88.6c0-26.21,11.24-40.56,33.7-40.56a70.06,70.06,0,0,1,21.84,3.74l10.6-32.44c-7.48-3.12-16.84-4.37-24.33-4.37m-443.64,16.22c-16.84-10.61-39.31-16.85-64.26-16.85-39.94,0-66.14,19.35-66.14,50.55,0,25.58,19.34,41.8,54.9,46.79l16.23,2.5c18.72,2.49,28.08,7.49,28.08,16.85,0,12.47-12.48,19.34-36.19,19.34s-41.19-7.49-52.42-16.85L578.41,1475c18.72,13.73,42.43,20.59,68.64,20.59,45.54,0,72.37-21.21,72.37-51.79,0-28.07-20.59-42.43-55.53-47.42l-16.22-2.49c-15-1.88-26.83-5-26.83-15.6,0-11.86,11.23-18.72,29.95-18.72,20,0,39.93,7.49,49.29,13.73Zm922.22-16.22c-20,0-33.07,9.36-41.81,23.09V1333.4h-34.32v158.49h34.32v-88.6c0-26.21,11.23-40.56,33.7-40.56a70,70,0,0,1,21.83,3.74L1661,1334c-7.49-3.12-17.47-4.37-24.33-4.37m-443.64,83c0,48,33.7,83,84.24,83,23.71,0,39.93-5.61,56.78-18.72l-16.85-28.07c-13.1,9.36-26.21,14.35-41.18,14.35-27.46-.63-47.42-20-47.42-50.54s20-50.55,47.42-50.55c15,0,28.7,5,41.18,14.36l16.85-28.08c-17.47-13.73-33.07-18.72-56.78-18.72-50.54,0-84.24,34.94-84.24,83m322.59,0V1333.4h-34.32v19.35c-11.23-14.35-27.45-23.09-49.92-23.09-44.3,0-79.24,34.94-79.24,83s34.94,83,79.24,83c22.47,0,39.31-8.73,49.92-23.08v19.34h34.32Zm-128.54,0c0-28.08,18.1-50.55,48-50.55,28.7,0,47.42,21.84,47.42,50.55s-19.34,50.54-47.42,50.54c-29.33,0-48-23.09-48-50.54m-414.93-83c-46.17,0-78.62,33.69-78.62,83,0,50.54,33.69,83,81.12,83,23.71,0,45.54-6.24,64.89-22.46l-16.85-25.58c-13.1,10.61-29.95,16.85-46.17,16.85-22.47,0-42.43-10-47.42-38.69h117.3a91.3,91.3,0,0,0,.63-13.1c0-49.3-30.58-83-74.88-83m-.62,30.57c22.46,0,36.19,13.73,39.93,38.69H929.08c3.74-23.09,17.47-38.69,42.43-38.69m863.56,52.42V1269.76h-34.32v83c-10.61-14.35-27.45-23.09-49.92-23.09-44.3,0-79.24,34.94-79.24,83s34.94,83,79.24,83c22.47,0,39.31-8.73,49.92-23.08v19.34h34.32Zm-128.54,0c0-28.08,18.1-50.55,48-50.55,28.7,0,47.42,21.84,47.42,50.55s-19.35,50.54-47.42,50.54c-29.33,0-48-23.09-48-50.54m-1162.44,0V1333.4H509.78v19.35c-10.61-14.35-27.46-23.09-49.92-23.09-44.3,0-79.24,34.94-79.24,83s34.94,83,79.24,83c22.46,0,39.31-8.73,49.92-23.08v19.34h34.31Zm-127.91,0c0-28.08,18.1-50.55,48.05-50.55,28.7,0,47.42,21.84,47.42,50.55s-19.35,50.54-47.42,50.54c-30,0-48.05-23.09-48.05-50.54m1476.29,56.15a18.53,18.53,0,0,1,6.24,1.25,13.53,13.53,0,0,1,5,3.12,34.81,34.81,0,0,1,3.75,5,18.58,18.58,0,0,1,1.24,6.24,22.3,22.3,0,0,1-1.24,6.24,9.73,9.73,0,0,1-3.75,5,13.53,13.53,0,0,1-5,3.12,16.2,16.2,0,0,1-12.48,0,13.1,13.1,0,0,1-8.11-8.11,18.29,18.29,0,0,1-1.25-6.24,22,22,0,0,1,1.25-6.24,13.1,13.1,0,0,1,8.11-8.11c1.87-1.25,3.74-1.25,6.24-1.25m0,28.08c1.87,0,3.12-.62,5-1.25a11.37,11.37,0,0,0,6.24-6.24,11.67,11.67,0,0,0,1.25-5c0-1.87-.62-3.12-1.25-5a11.37,11.37,0,0,0-6.24-6.24c-1.25-.63-3.12-.63-5-.63s-3.12.63-5,.63c-1.25.62-3.12,1.25-3.75,2.49a13.13,13.13,0,0,0-2.49,3.75,11.67,11.67,0,0,0-1.25,5c0,1.87.62,3.12,1.25,5a11.37,11.37,0,0,0,6.24,6.24,11.67,11.67,0,0,0,5,1.25m.62-20a9.05,9.05,0,0,1,4.37,1.25c1.25.63,1.25,1.87,1.25,3.12a4.72,4.72,0,0,1-1.25,3.12,5.23,5.23,0,0,1-3.74,1.25l5,5.62H1895l-4.37-5.62h-1.25v5.62h-3.12v-14.36Zm-3.74,3.12v3.75h3.74a2.29,2.29,0,0,0,1.88-.63c.62,0,.62-.62.62-1.25s0-1.24-.62-1.24a2.29,2.29,0,0,0-1.88-.63Z"></path><rect id="orange" class="cls-2" x="703.2" y="127.29" width="521.63" height="937.19"></rect><path id="red" class="cls-3" d="M736.27,595.88c0-190.31,89.23-359.4,227.75-468.59C862.94,47.42,735,0,595.88,0,267.05,0,0,267.05,0,595.88s267.05,595.88,595.88,595.88c139.15,0,267.06-47.42,368.14-127.28-139.14-109.2-227.75-278.29-227.75-468.6"></path><path id="tm" class="cls-4" d="M1871.26,965.27V945.92h7.48v-3.74h-20v3.74h7.49v19.35Zm38.06,0V942.18h-6.24l-6.87,15.6-6.86-15.6h-6.24v23.09h4.37V947.79l6.24,15h4.37l6.24-15v17.48Z"></path><path id="yellow" class="cls-4" d="M1928,595.88c0,328.83-267.06,595.88-595.88,595.88-139.15,0-267.06-47.42-368.14-127.28,138.52-109.2,227.74-278.29,227.74-468.6S1102.54,236.48,964,127.29C1065.1,47.42,1193,0,1332.16,0,1661,0,1928,267.05,1928,595.88"></path></g></g></g></svg> 