<?xml version="1.0" encoding="UTF-8"?> <svg xmlns="http://www.w3.org/2000/svg" viewBox="0 0 2000 645.54"><defs><style>.cls-1{fill:#fff;}</style></defs><title>Visa-White</title><g id="Layer_2" data-name="Layer 2"><g id="Layer_1-2" data-name="Layer 1"><g id="visa"><path id="visa-txt" class="cls-1" d="M0,24.23c3.13-4,.42-11.18,4.91-13.06,4.7-2,10.76-.73,16.2-.73h254.2c41.38,0,71.05,24.76,78.68,65.41q32.91,175.53,65.92,351.06c.42,2,1,4,1.89,7.31,8.25-20.69,16-40.22,23.71-59.87Q516,196.17,586.25,17.86c2.3-5.75,4.81-7.73,11.18-7.73,51.51.31,102.92.21,154.43.21h7.83c-6.58,16-13,31.24-19.33,46.49Q620.63,342.54,501,628.25c-2.4,5.74-5,7.62-11.28,7.52q-77.58-.46-155.16,0c-6.47,0-8.67-1.88-10.24-7.94Q260.68,380.51,196.85,133.1c-6.48-25.49-20.17-43.25-44.1-54.54-47-22-96.43-36.46-146.69-48.16C4.07,30,2,29.35,0,28.83ZM1369.34,3.54a530.49,530.49,0,0,1,83.69,21c4.5,1.47,5.86,3.24,4.71,8.36q-13.17,60-25.71,120.26c-1.15,5.33-2.3,6.48-7.83,4.08-43.89-19.23-89.86-28.74-137.81-26.75-20.69.84-40.86,4.49-58.83,15.57-12.64,7.73-22,18.28-24.55,33.43-2.09,12.85,3.13,23.41,11.7,32.5,13.17,14,29.88,23.19,46.5,32.28,30.3,16.51,61.54,31.35,89.85,51.3,31.14,21.94,58.51,47.86,69.59,85.36,19.85,67.29,5.22,128.1-40.75,180.55-32.91,37.61-76.27,58.3-123.81,70.94-52.35,13.9-105.64,15.67-159.24,10.35-40.12-4-79.61-11.18-117.54-25.39-11.91-4.5-11.91-4.5-9.19-17.24q12.54-59.4,25.28-118.8c.42-2,1.15-4,1.88-6.27,28.32,13.69,57,26,87.66,32.08,40.75,8,81.71,12,122.67.73,13.68-3.76,26.22-9.82,36.57-19.85,20-19.44,20.68-47.23,1.56-67.5-10.45-11.07-23.19-19.12-36.25-26.64-23.72-13.79-49.32-24.35-72.83-38.66-21.83-13.27-42.52-28-60.07-46.7-44.62-47.23-52.45-102.08-32.18-161.85,17.76-52.34,55.16-87.55,103.12-112.42,37.09-19.33,77-28.76,118.38-33.33C1267.69.74,1334-2.22,1369.34,3.54ZM694.91,635.66c4.81-22.36,9.41-44.19,14-65.93q35.58-166.28,71.15-332.46Q803.73,126.93,827.19,16.6c1-4.8,2.92-6.47,8.15-6.47q74.45.3,148.88,0c5,0,6.48.62,5.23,6.26C971.69,98.2,954.34,180.22,936.79,262q-36.21,169.26-72.51,338.53c-2.2,10.13-4.39,20.27-6.37,30.4-.63,2.93-1.57,4.49-5,4.49C800.54,635.66,748.09,635.66,694.91,635.66Zm1303.31-11.8q-17.87-84.48-35.52-169.06-45.6-218.62-91-437.25c-1.15-5.44-3.24-7.32-9.09-7.32-42.42.31-84.84.21-127.16.21-35.94,0-60.29,16.3-74.29,49.73q-111.11,265.19-222.23,530.25c-6.16,14.73-12.22,29.57-18.39,44.41a10.85,10.85,0,0,0,2.4.62c54.33.11,108.67,0,163,.21,4.7,0,5.53-2.71,6.68-5.85,9.72-27.06,19.65-54,29.15-81.18,1.78-4.91,4-6.58,9.3-6.58q96.23.47,192.56,0c6.59,0,8.26,2.51,9.3,8,5.12,26.23,10.76,52.35,15.88,78.57,1,5.65,3.45,7.11,9.09,7.11,47.23-.21,94.56-.11,141.89-.11,0-2.61,0-5.12.21-7.83C1998,627.09,1998.54,625.21,1998.22,623.86ZM1796.36,414.05c-41.48-.31-83.06-.1-125.69-.1,28.21-77.74,56-154.32,83.69-230.91.52,0,.94.11,1.47.11,4.28,20.58,8.67,41.06,13,61.64q16.77,80.72,33.75,161.32C1803.78,412.17,1803.16,414.05,1796.36,414.05Z"></path></g></g></g></svg> 