<?xml version="1.0" encoding="UTF-8"?> <svg xmlns="http://www.w3.org/2000/svg" xmlns:xlink="http://www.w3.org/1999/xlink" id="Layer_1" data-name="Layer 1" viewBox="0 0 200 200"><defs><style>.cls-1{fill:none;}.cls-2{clip-path:url(#clip-path);}.cls-3{fill:#245b74;}.cls-4{fill:#fff;}</style><clipPath id="clip-path"><rect class="cls-1" width="200" height="200"></rect></clipPath></defs><title>BB_NEG_AZUL1</title><g id="BB_NEG_AZUL1"><g class="cls-2"><g class="cls-2"><path class="cls-3" d="M196,200H4a4,4,0,0,1-4-4V4A4,4,0,0,1,4,0H196a4,4,0,0,1,4,4V196a4,4,0,0,1-4,4"></path><path class="cls-4" d="M178.949,15V185h4a2,2,0,0,0,2-2V17a1.9994,1.9994,0,0,0-2-2Zm-162,170h4V15h-4a2,2,0,0,0-2,2V183a2.0007,2.0007,0,0,0,2,2m88.587-89h4V15h-4Zm20.873,0h12V15h-12Zm36.54,0h6V15h-6Zm-75.7,0h4V15h-4ZM76.404,96h6V15h-6ZM56.115,96h10V15h-10ZM30.949,96h6V15h-6Zm111.957,0h4V15h-4ZM87.249,185h4V166h-4Zm-10.845,0h6V166h-6Zm-20.289,0h10V166h-10Zm-25.166,0h6V166h-6Z"></path><path class="cls-4" d="M52.7342,122.4073a8.2309,8.2309,0,0,1-2.347,5.958,7.92,7.92,0,0,1-5.883,2.42H31.7682a.7143.7143,0,0,1-.819-.819v-24.391c0-.558.261-.856.819-.856h9.869a7.3744,7.3744,0,0,1,5.288,1.974,6.39,6.39,0,0,1,2.084,4.84,5.8254,5.8254,0,0,1-.93,3.202,8.3358,8.3358,0,0,1,4.655,7.672m-17.502-13.666v5.101h8.676a2.9825,2.9825,0,0,0,.819-2.123,2.8636,2.8636,0,0,0-3.09-2.978Zm8.714,18.022a4.5434,4.5434,0,0,0,.037-9.086h-8.751v9.086Z"></path><path class="cls-4" d="M69.6327,131.27a13.3547,13.3547,0,0,1-13.518-13.518,13.4157,13.4157,0,0,1,13.518-13.517,13.4778,13.4778,0,0,1,13.518,13.517,13.4157,13.4157,0,0,1-13.518,13.518m0-4.172a8.9265,8.9265,0,0,0,6.554-2.644,9.0887,9.0887,0,0,0,2.68-6.702,8.9491,8.9491,0,0,0-2.68-6.666,8.82,8.82,0,0,0-6.554-2.681,8.9632,8.9632,0,0,0-6.592,2.681,9.07,9.07,0,0,0-2.643,6.666,9.2127,9.2127,0,0,0,2.643,6.702,9.0731,9.0731,0,0,0,6.592,2.644"></path><path class="cls-4" d="M101.1024,126.689c.558,0,.855.261.855.819v2.458c0,.559-.297.82-.855.82H88.0684a.7156.7156,0,0,1-.82-.82V105.539a.7153.7153,0,0,1,.82-.82h2.607c.558,0,.857.26.857.82v21.15Z"></path><path class="cls-4" d="M119.9843,126.689a.7139.7139,0,0,1,.819.819v2.458a.7142.7142,0,0,1-.819.82h-13.629a.7146.7146,0,0,1-.819-.82V105.539a.7142.7142,0,0,1,.819-.82h13.406c.558,0,.856.26.856.82v2.457c0,.558-.298.819-.856.819h-9.942v6.777h9.049c.557,0,.819.298.819.857v2.345a.7153.7153,0,0,1-.819.82h-9.049v7.075Z"></path><path class="cls-4" d="M140.6024,104.7193c.559,0,.857.26.857.819v2.457c0,.559-.298.82-.857.82h-5.734v21.151c0,.559-.298.819-.858.819h-2.605c-.56,0-.858-.26-.858-.819v-21.151h-5.734c-.559,0-.856-.261-.856-.82v-2.457c0-.559.297-.819.856-.819h15.789Z"></path><path class="cls-4" d="M156.2821,131.27a13.3547,13.3547,0,0,1-13.518-13.518,13.5612,13.5612,0,1,1,13.518,13.518m0-4.172a8.9265,8.9265,0,0,0,6.554-2.644,9.0887,9.0887,0,0,0,2.68-6.702,8.9491,8.9491,0,0,0-2.68-6.666,8.82,8.82,0,0,0-6.554-2.681,8.9648,8.9648,0,0,0-6.592,2.681,9.07,9.07,0,0,0-2.643,6.666,9.2127,9.2127,0,0,0,2.643,6.702,9.0748,9.0748,0,0,0,6.592,2.644"></path><path class="cls-4" d="M47.2091,151.8835a5.9079,5.9079,0,0,1-1.755,4.359,5.8089,5.8089,0,0,1-4.332,1.755h-9.515a.5821.5821,0,0,1-.658-.658v-17.878a.5817.5817,0,0,1,.658-.658h7.321a5.7336,5.7336,0,0,1,4.058,1.481,4.8173,4.8173,0,0,1,1.591,3.701,4.27,4.27,0,0,1-.686,2.331,6.1634,6.1634,0,0,1,3.318,5.567m-12.503-9.543v3.236h5.539a1.8759,1.8759,0,0,0-1.317-3.236Zm5.95,12.12a2.77,2.77,0,0,0,.027-5.539h-5.977v5.539Z"></path><path class="cls-4" d="M65.7777,157.2578c.136.465-.083.74-.548.74h-2.743a.715.715,0,0,1-.74-.549l-.905-2.906h-7.376l-.933,2.906a.6661.6661,0,0,1-.713.549h-2.769c-.466,0-.713-.275-.521-.74l6.087-17.906a.726.726,0,0,1,.768-.548h3.538a.7134.7134,0,0,1,.74.548Zm-11.188-6.225h5.101l-2.551-8.034Z"></path><path class="cls-4" d="M78.621,139.4615a.5814.5814,0,0,1,.657-.658h2.468a.5817.5817,0,0,1,.658.658V157.34a.5817.5817,0,0,1-.658.658H80.047a.868.868,0,0,1-.796-.411l-7.211-11.435V157.34a.5742.5742,0,0,1-.631.658H68.941a.5821.5821,0,0,1-.658-.658v-17.878a.5821.5821,0,0,1,.658-.658h1.701a.8648.8648,0,0,1,.794.411l7.185,11.435Z"></path><path class="cls-4" d="M85.705,148.401a9.8024,9.8024,0,0,1,10.009-9.981,9.5681,9.5681,0,0,1,5.73,1.809,8.8117,8.8117,0,0,1,3.401,4.69.535.535,0,0,1-.549.74h-2.687a.7772.7772,0,0,1-.74-.522,5.5755,5.5755,0,0,0-5.155-3.043,6.0348,6.0348,0,0,0-4.525,1.755,6.9443,6.9443,0,0,0,0,9.104,6.0386,6.0386,0,0,0,4.525,1.755,5.53,5.53,0,0,0,5.155-3.044.7772.7772,0,0,1,.74-.522h2.687a.5042.5042,0,0,1,.549.686,8.8951,8.8951,0,0,1-3.373,4.744,9.592,9.592,0,0,1-5.758,1.809,9.8015,9.8015,0,0,1-10.009-9.98"></path><path class="cls-4" d="M123.1635,157.2578c.136.465-.083.74-.548.74h-2.743a.715.715,0,0,1-.74-.549l-.905-2.906h-7.376l-.933,2.906a.6661.6661,0,0,1-.713.549h-2.769c-.466,0-.713-.275-.521-.74l6.087-17.906a.726.726,0,0,1,.768-.548h3.538a.7134.7134,0,0,1,.74.548Zm-11.188-6.225h5.101l-2.551-8.034Z"></path><path class="cls-4" d="M140.997,157.1754c.329.438.164.822-.384.822h-2.907a.9349.9349,0,0,1-.795-.384l-5.128-6.279h-2.33v6.005a.5817.5817,0,0,1-.658.658h-2.468a.5817.5817,0,0,1-.658-.658v-17.878a.5821.5821,0,0,1,.658-.658h6.608a6.2466,6.2466,0,0,1,2.797,11.9ZM129.453,142.34v5.677h3.482a2.849,2.849,0,0,0,0-5.677Z"></path><path class="cls-4" d="M143.4774,139.4615a.5821.5821,0,0,1,.658-.658h2.468a.5742.5742,0,0,1,.631.658V157.34a.5742.5742,0,0,1-.631.658h-2.468a.5821.5821,0,0,1-.658-.658Z"></path><path class="cls-4" d="M159.8732,158.381a9.9805,9.9805,0,1,1,8.637-15.026,9.7224,9.7224,0,0,1,1.343,5.046,9.8946,9.8946,0,0,1-9.98,9.98m6.197-9.98a6.1368,6.1368,0,0,0-1.782-4.524,6.3576,6.3576,0,0,0-8.83,0,6.6309,6.6309,0,0,0,0,9.048,6.0179,6.0179,0,0,0,4.415,1.783,6.0993,6.0993,0,0,0,6.197-6.307"></path><path class="cls-4" d="M113.0624,137.401c-.407,0-.599-.286-.384-.67l1.318-2.25a.6927.6927,0,0,1,.67-.383h2.785c.477,0,.645.335.335.695l-1.844,2.273a.8185.8185,0,0,1-.694.335Z"></path><path class="cls-4" d="M106.1346,175.4029a9.8009,9.8009,0,0,1,10.008-9.981,9.5681,9.5681,0,0,1,5.73,1.809,8.8117,8.8117,0,0,1,3.401,4.69.535.535,0,0,1-.549.74h-2.687a.7772.7772,0,0,1-.74-.522,5.5745,5.5745,0,0,0-5.155-3.043,6.0348,6.0348,0,0,0-4.525,1.755,6.9443,6.9443,0,0,0,0,9.104,6.0386,6.0386,0,0,0,4.525,1.755,5.5292,5.5292,0,0,0,5.155-3.044.7772.7772,0,0,1,.74-.522h2.687a.5042.5042,0,0,1,.549.686,8.8951,8.8951,0,0,1-3.373,4.744,9.592,9.592,0,0,1-5.758,1.809,9.8,9.8,0,0,1-10.008-9.98"></path><path class="cls-4" d="M137.2824,185.3829a9.9805,9.9805,0,1,1,8.637-15.026,9.7224,9.7224,0,0,1,1.343,5.046,9.8946,9.8946,0,0,1-9.98,9.98m6.197-9.98a6.1368,6.1368,0,0,0-1.782-4.524,6.3576,6.3576,0,0,0-8.83,0,6.6309,6.6309,0,0,0,0,9.048,6.0179,6.0179,0,0,0,4.415,1.783,6.0993,6.0993,0,0,0,6.197-6.307"></path><path class="cls-4" d="M168.2909,165.8053a.5821.5821,0,0,1,.658.658v17.878a.5817.5817,0,0,1-.658.658h-2.468a.5813.5813,0,0,1-.658-.658v-12.229l-4.031,9.323a.7409.7409,0,0,1-.74.493h-1.673a.7422.7422,0,0,1-.741-.493l-4.057-9.323v12.229a.5737.5737,0,0,1-.631.658h-2.468a.5817.5817,0,0,1-.658-.658v-17.878a.5821.5821,0,0,1,.658-.658h3.099a.7519.7519,0,0,1,.767.494l4.881,11.242,4.854-11.242a.7536.7536,0,0,1,.767-.494h3.099Z"></path><rect class="cls-4" x="100.912" y="181" width="4" height="4"></rect></g></g></g></svg> 